name C:\Users\r0593348\3dpredictsim\Results\batch_windlass\Pog_s1_tmt_bCst_d00_k500_WL40_ig24_pas.mot
datacolumns 128
datarows 4
range 1.13691061 1.17101793
endheader
time	pelvis_tilt	pelvis_list	pelvis_rotation	pelvis_tx	pelvis_ty	pelvis_tz	hip_flexion_l	hip_adduction_l	hip_rotation_l	hip_flexion_r	hip_adduction_r	hip_rotation_r	knee_angle_l	knee_angle_r	ankle_angle_l	ankle_angle_r	subtalar_angle_l	subtalar_angle_r	tmt_angle_l	tmt_angle_r	mtp_angle_l	mtp_angle_r	lumbar_extension	lumbar_bending	lumbar_rotation	arm_flex_l	arm_add_l	arm_rot_l	arm_flex_r	arm_add_r	arm_rot_r	elbow_flex_l	elbow_flex_r	pro_sup_l	pro_sup_r	glut_med1_l/activation	glut_med2_l/activation	glut_med3_l/activation	glut_min1_l/activation	glut_min2_l/activation	glut_min3_l/activation	semimem_l/activation	semiten_l/activation	bifemlh_l/activation	bifemsh_l/activation	sar_l/activation	add_long_l/activation	add_brev_l/activation	add_mag1_l/activation	add_mag2_l/activation	add_mag3_l/activation	tfl_l/activation	pect_l/activation	grac_l/activation	glut_max1_l/activation	glut_max2_l/activation	glut_max3_l/activation	iliacus_l/activation	psoas_l/activation	quad_fem_l/activation	gem_l/activation	peri_l/activation	rect_fem_l/activation	vas_med_l/activation	vas_int_l/activation	vas_lat_l/activation	med_gas_l/activation	lat_gas_l/activation	soleus_l/activation	tib_post_l/activation	flex_dig_l/activation	flex_hal_l/activation	tib_ant_l/activation	per_brev_l/activation	per_long_l/activation	per_tert_l/activation	ext_dig_l/activation	ext_hal_l/activation	ercspn_l/activation	intobl_l/activation	extobl_l/activation	glut_med1_r/activation	glut_med2_r/activation	glut_med3_r/activation	glut_min1_r/activation	glut_min2_r/activation	glut_min3_r/activation	semimem_r/activation	semiten_r/activation	bifemlh_r/activation	bifemsh_r/activation	sar_r/activation	add_long_r/activation	add_brev_r/activation	add_mag1_r/activation	add_mag2_r/activation	add_mag3_r/activation	tfl_r/activation	pect_r/activation	grac_r/activation	glut_max1_r/activation	glut_max2_r/activation	glut_max3_r/activation	iliacus_r/activation	psoas_r/activation	quad_fem_r/activation	gem_r/activation	peri_r/activation	rect_fem_r/activation	vas_med_r/activation	vas_int_r/activation	vas_lat_r/activation	med_gas_r/activation	lat_gas_r/activation	soleus_r/activation	tib_post_r/activation	flex_dig_r/activation	flex_hal_r/activation	tib_ant_r/activation	per_brev_r/activation	per_long_r/activation	per_tert_r/activation	ext_dig_r/activation	ext_hal_r/activation	ercspn_r/activation	intobl_r/activation	extobl_r/activation	
          1.13691061	         -2.92756302	         -1.85292041	          6.07974111	          1.42113827	          0.85862178	         -0.00345829	        -17.80902545	         -1.36607218	          7.12574559	         31.11854797	          2.62792453	         -2.84723714	         -9.32585747	        -13.47910444	          1.63529200	          7.85784918	         12.14356363	         -1.52951072	        -11.27361846	         -0.70535467	         29.75090651	          1.58387365	         -1.44811977	          0.36891500	         -2.18630820	          6.57939742	        -13.47411701	         18.61059482	         -8.47800664	        -13.51218774	         14.25785011	         36.55530868	         12.65657974	         86.51662706	         86.51662706	          0.27610464	          0.07791847	          0.05000004	          0.28333267	          0.16462718	          0.07913293	          0.05000099	          0.05000019	          0.05000014	          0.06116929	          0.07458181	          0.12885608	          0.05006763	          0.05000071	          0.05000097	          0.05000039	          0.25059521	          0.10011188	          0.05000063	          0.05000071	          0.05000052	          0.05000032	          0.34825945	          0.53300127	          0.05000007	          0.05000019	          0.05000006	          0.23844018	          0.11950488	          0.12044219	          0.07403937	          0.25540481	          0.32989980	          0.21524598	          0.19958813	          0.17665531	          0.25455273	          0.05000002	          0.13930291	          0.18203383	          0.05000032	          0.05000006	          0.05000019	          0.05000007	          0.05000002	          0.05000017	          0.05947425	          0.05947406	          0.05000058	          0.05947403	          0.05947394	          0.05947389	          0.07910123	          0.05947458	          0.22623785	          0.05000105	          0.05000102	          0.11905963	          0.18555468	          0.11438088	          0.17619607	          0.10834403	          0.05000057	          0.05121168	          0.11611932	          0.05000113	          0.06355564	          0.11870184	          0.05280336	          0.05000544	          0.30458690	          0.06982051	          0.12734848	          0.05000007	          0.11203080	          0.12126188	          0.09708349	          0.05947423	          0.05947423	          0.05947424	          0.05000259	          0.05004783	          0.05934475	          0.54128578	          0.36380942	          0.21000909	          0.25076901	          0.56053733	          0.30915249	          0.05261273	          0.09418354	          0.09063747	
          1.14827972	         -2.91821874	         -1.91416865	          6.26440105	          1.43898622	          0.85796053	         -0.00320876	        -17.60283514	         -1.63686758	          6.92222301	         30.39724776	          3.05432513	         -2.67143881	        -11.35122281	        -13.49636028	          0.42190076	          7.34239127	         13.07421068	         -1.96934844	        -12.08939470	         -0.85757876	         30.73548158	          1.88449133	         -1.20449489	          0.60251998	         -2.27442768	          6.17493938	        -13.50374175	         18.70720357	         -9.70211560	        -13.50135226	         14.07484551	         37.80375157	         12.65515460	         86.51662706	         86.51662706	          0.23212121	          0.06550610	          0.05000040	          0.23819786	          0.13840212	          0.06652714	          0.05000167	          0.05000012	          0.05000014	          0.05142504	          0.06270102	          0.19167316	          0.22560880	          0.22301357	          0.07415045	          0.16107855	          0.21067547	          0.08416470	          0.05000042	          0.05000327	          0.05000211	          0.05008707	          0.29278171	          0.44809431	          0.05000040	          0.05933719	          0.05947424	          0.20045665	          0.11905984	          0.11905993	          0.11905974	          0.21471880	          0.27734674	          0.18095728	          0.16779377	          0.14851426	          0.21400255	          0.08867769	          0.11711202	          0.15303589	          0.05000022	          0.10702633	          0.05000046	          0.06583302	          0.07074377	          0.05947426	          0.05000002	          0.05000007	          0.08912675	          0.05000005	          0.05000006	          0.05000011	          0.06650041	          0.05000036	          0.19019817	          0.05000037	          0.05223886	          0.10009419	          0.27973552	          0.38884835	          0.24379019	          0.09108492	          0.05000016	          0.05749649	          0.12836003	          0.05542801	          0.09116738	          0.14931726	          0.05000023	          0.05948368	          0.60441595	          0.18580620	          0.16021817	          0.07074387	          0.23396073	          0.24148965	          0.20332405	          0.05000000	          0.05000002	          0.05000000	          0.05000009	          0.05040894	          0.05000037	          0.64949922	          0.30585537	          0.22498518	          0.50156499	          0.62854584	          0.36655123	          0.05000000	          0.07918010	          0.07619892	
          1.15964883	         -2.90329519	         -1.99265135	          6.41728904	          1.45702157	          0.85705057	         -0.00298765	        -17.29536203	         -1.90003689	          6.70436117	         29.53257802	          3.39825781	         -2.41703721	        -13.59490223	        -13.91710061	         -0.83431939	          6.90247183	         13.92032128	         -2.41938141	        -12.53740050	         -1.08663785	         30.92005683	          2.11621857	         -0.94897160	          0.86141351	         -2.34743517	          5.69297461	        -13.53112397	         18.70474433	        -10.90133493	        -13.50540083	         13.98439504	         39.05389500	         12.62273759	         86.51662706	         86.51662706	          0.30083425	          0.05507105	          0.05000015	          0.20025312	          0.11635472	          0.05592946	          0.05000162	          0.05000105	          0.05000295	          0.05000007	          0.05271290	          0.16113974	          0.29964734	          0.18748768	          0.06233946	          0.13541927	          0.17711510	          0.07080674	          0.05000164	          0.05003862	          0.05013797	          0.05947394	          0.24614158	          0.40315521	          0.05000095	          0.05000075	          0.05000014	          0.16852389	          0.10009362	          0.10009369	          0.10009353	          0.18051408	          0.23316539	          0.15213077	          0.14106426	          0.12485605	          0.17991204	          0.16876108	          0.19501167	          0.19002923	          0.05000072	          0.22114129	          0.11376708	          0.07666647	          0.05947429	          0.05000010	          0.31760152	          0.28974646	          0.31260540	          0.18272149	          0.05000140	          0.34165434	          0.09608551	          0.05000123	          0.16672192	          0.05000008	          0.05000029	          0.08414932	          0.23517388	          0.32690489	          0.24220263	          0.15279956	          0.05000033	          0.06016075	          0.13125953	          0.05000017	          0.07664459	          0.14400562	          0.05000197	          0.05000800	          0.50813246	          0.15620734	          0.24785401	          0.05947438	          0.19669093	          0.20302060	          0.17093465	          0.05947428	          0.05947430	          0.05947427	          0.05947422	          0.05947438	          0.05947453	          0.54603396	          0.41388886	          0.20587970	          0.42166575	          0.60940495	          0.30815969	          0.05192963	          0.06942108	          0.06406044	
          1.17101793	         -2.88517768	         -2.07220419	          6.53724856	          1.47500161	          0.85591557	         -0.00275572	        -16.85210938	         -2.14148609	          6.49247057	         28.54255368	          3.69266833	         -2.14865628	        -16.10414491	        -14.27683822	         -2.04780699	          6.45129477	         14.66814471	         -2.87378995	        -12.38234605	         -1.12955422	         29.82863064	          2.35336142	         -0.70550628	          1.12256088	         -2.40783107	          5.17872375	        -13.56356943	         18.63068523	        -12.02531464	        -13.51633042	         13.99463426	         40.27942298	         12.53507335	         86.51662706	         86.51662706	          0.25291144	          0.05000014	          0.05000006	          0.22281229	          0.09781952	          0.05000041	          0.05004725	          0.05000029	          0.05000023	          0.05000062	          0.05947560	          0.14823939	          0.25191362	          0.15762102	          0.05240907	          0.11384713	          0.19141226	          0.05953660	          0.05000100	          0.05000078	          0.05000052	          0.05000036	          0.20693128	          0.38060166	          0.05000008	          0.05000048	          0.05000026	          0.14167803	          0.08414871	          0.08414877	          0.08414863	          0.15175817	          0.19602214	          0.12789632	          0.12501685	          0.10496668	          0.15125244	          0.17942294	          0.16447979	          0.16078132	          0.10648485	          0.19635983	          0.09564422	          0.10905425	          0.05000003	          0.05000004	          0.40490343	          0.42392304	          0.44480769	          0.20246027	          0.28592882	          0.29166012	          0.08077920	          0.11536992	          0.14016313	          0.07294066	          0.05000084	          0.07074435	          0.19771069	          0.27482903	          0.20779535	          0.17144025	          0.05000024	          0.05057751	          0.11035051	          0.25330184	          0.19232469	          0.16598166	          0.05000007	          0.05000007	          0.42718695	          0.13132362	          0.20837138	          0.05000012	          0.16535834	          0.21425604	          0.14370517	          0.05000003	          0.05000006	          0.05000001	          0.05000000	          0.05000034	          0.05000030	          0.70112231	          0.40994871	          0.19859544	          0.67101596	          0.71275846	          0.49470396	          0.07868076	          0.07397264	          0.05385561	
